<?xml version="1.0" encoding="utf-8"?>
<!-- Generator: Adobe Illustrator 25.2.0, SVG Export Plug-In . SVG Version: 6.00 Build 0)  -->
<svg version="1.1" id="Layer_1" xmlns="http://www.w3.org/2000/svg" xmlns:xlink="http://www.w3.org/1999/xlink" x="0px" y="0px"
	 viewBox="0 0 4000 4000" style="enable-background:new 0 0 4000 4000;" xml:space="preserve">
<style type="text/css">
	.st0{fill:#EEEEEE;}
	.st1{fill:#ACD9BA;}
</style>
<rect id="XMLID_1_" class="st0" width="4000" height="4000"/>
<g id="XMLID_16_">
	<path id="XMLID_17_" class="st1" d="M1308.23,1333.67l-211.4-9.8l241,85.31l-177.86-3.27l305.04,153.53l-181.62,11.16l309.18,173.1
		l-132.2-12.92l175.33,163.28c27.49,25.6,67.57,32.4,101.96,17.29l0,0c50.16-22.03,70.97-82.09,45.19-130.43l-179.11-335.85
		c-22.2-41.63-43.6-83.69-64.04-126.2c-48.57-100.99-179.03-342.67-312.49-336.02c-168.58,8.4-146.13,146.75-146.13,146.75
		l173.84,113.14l-178.67-16.13L1308.23,1333.67z"/>
	<path id="XMLID_25_" class="st1" d="M2993.64,1724.61c-104.46-29.53-286.69-51.46-603.18-44.56v-218.64
		c0-57.64-46.73-104.37-104.37-104.37H1730c-49.57,0-91.07,34.56-101.72,80.89l176.64,331.23c15.55,29.16,18.27,63.8,7.45,95.03
		c-10.82,31.23-34.38,56.76-64.64,70.05c-15.42,6.77-31.73,10.07-47.9,10.07c-29.54,0-58.65-11-81.15-31.96l-229.42-213.64
		l86.97,8.5l-49.26-27.58c-197.91,4.08-324.2,22.28-404.51,44.98c-86.19,24.36-104.16,138.56-29.44,187.93
		c166.55,110.04,325.8,181.59,466.75,227.88c-68.21,183.19,3.89,377.54,38.97,454.26c9.87,21.58,6.94,46.85-7.53,65.66v0
		c-36.65,47.64-35.76,114.23,2.14,160.88l48.32,59.47c37.18,13.52,70.42-3.19,97.15-28.67c18.49-17.61,32.47-38.72,41.66-61.69
		l143.55,148.8c48.63,50.41,113.98,78.17,184.02,78.17c70.04,0,135.39-27.76,184.02-78.17l143.55-148.8
		c9.18,22.97,23.17,44.08,41.66,61.69c26.74,25.47,59.97,42.19,97.15,28.67l48.32-59.47c37.91-46.65,38.79-113.23,2.14-160.88v0
		c-14.47-18.81-17.39-44.08-7.53-65.66c35.07-76.72,107.17-271.07,38.97-454.26c140.95-46.29,300.2-117.83,466.75-227.88
		C3097.8,1863.17,3079.83,1748.97,2993.64,1724.61z M2327,2683.34c-4.55,20.81-5.44,41.97-2.84,62.54l-160.24,166.1
		c-41.19,42.7-96.54,66.21-155.87,66.21c-59.32,0-114.68-23.51-155.87-66.21l-160.24-166.1c2.59-20.57,1.71-41.73-2.84-62.54
		c-48.08-219.65-0.15-428.37,14.03-481.92c110.11,19.02,196.34,22.14,248.6,21.48c37.55-0.47,75.11-0.47,112.66,0
		c52.25,0.66,138.49-2.45,248.6-21.48C2327.15,2254.97,2375.07,2463.68,2327,2683.34z"/>
	<path id="XMLID_26_" class="st1" d="M2008.04,2559.07c0,0-112.38,117.73-254.2,117.73c0,0,120.41,76.18,254.2-58.87
		c133.79,135.05,254.2,58.87,254.2,58.87C2120.43,2676.81,2008.04,2559.07,2008.04,2559.07z"/>
	<path id="XMLID_27_" class="st1" d="M2056.63,2747.05c-14.69,23.95-36.76,63.2-48.58,100.1c-11.82-36.91-33.89-76.15-48.58-100.1
		c-7.34-11.96-23.82-14.12-34.01-4.47c-10.26,9.72-8.8,26.33,2.84,34.34c50.69,34.89,71.58,153.27,71.58,153.27
		c3.26-2.44,5.96-5.28,8.17-8.44c2.22,3.16,4.92,6,8.17,8.44c0,0,20.89-118.39,71.58-153.27c11.64-8.01,13.1-24.62,2.84-34.34
		C2080.45,2732.93,2063.96,2735.09,2056.63,2747.05z"/>
</g>
</svg>
